<?xml version="1.0" encoding="UTF-8"?>
<svg id="Layer_1" data-name="Layer 1" xmlns="http://www.w3.org/2000/svg" viewBox="0 0 148.4 52.47">
  <path d="M20.55,26.47l3.28,7.67h-3.43v1.13h13.71v-1.13h-3.21l-3.26-7.65c-.9.38-1.99.64-3.41.66-1.55.05-2.71-.25-3.68-.67Z"/>
  <path d="M10.39,21.74l4.07-10.16,4,9.5c.94.38,1.68.88,2.37,1.35,1.21.83,2.29,1.59,4.49,1.51.52,0,.97-.05,1.37-.13L18.04,3.51h-1.55l-7.72,19.32c.12-.08.24-.17.36-.26.39-.28.8-.56,1.25-.83Z"/>
  <path d="M3.37,36.32H0v1.13h8.35v-1.13h-3.8l2.89-7.17c-.4.13-.84.22-1.32.29l-2.75,6.88Z"/>
  <path d="M39.16,20.87c-.11-1.38-.04-2.75.19-4.03h18.15c-.05-5.65-5.52-8.19-11.4-8.19-7.71,0-11.88,5.59-12.77,11.9.67-.17,1.42-.29,2.31-.3,1.47-.02,2.6.24,3.53.62ZM46.15,9.78c3.75,0,4.98,2.48,5.25,5.93h-11.78c.91-3.39,3.11-5.93,6.53-5.93Z"/>
  <path d="M35.66,23.27c-.95.01-1.68.16-2.3.38.97,6.35,5.17,12.01,12.37,12.01,4.6,0,9.9-3.16,11.89-8.98l-.59-.28c-1.55,2.82-4.18,4.24-6.91,4.24-4.02,0-6.92-2.12-8.73-5.07-.44-.26-.84-.53-1.23-.79-1.22-.83-2.26-1.59-4.49-1.51Z"/>
  <path d="M65.8,23.45c.19-3.62,1.72-7.02,4.6-7.02,1.95,0,3.28,1.57,4,3.7.72-.21,1.55-.35,2.56-.36.05,0,.09,0,.14,0,1.67,0,2.87.36,3.86.84-1.28-2.49-3.95-4.53-8.04-5.13.86-.96,1.45-1.81,2.3-1.98,2.89-.68,3.27,4.63,6.8,3.56.8-.25,1.39-.71,1.77-1.27.27-.39.44-.83.51-1.28.33-1.98-1.13-4.29-4.22-4.29-3.37,0-6.48,2.37-8.41,5.14-.43-.06-.86-.06-1.28-.06-5.52,0-9.04,2.34-10.57,5.32.91.38,1.64.88,2.32,1.34,1.05.71,1.99,1.36,3.65,1.49Z"/>
  <path d="M74.96,24.25c-.29,3.43-1.81,6.54-4.56,6.54-1.77,0-3.03-1.29-3.78-3.12-2.88.06-4.45-1.02-5.81-1.95-.54-.37-1.06-.72-1.65-.99.62,2.78,2.77,5.33,6.47,6.5-3.43.68-6.64,2.43-6.64,6.49,0,3.22,2.2,6.44,5.62,6.44,4.07,0,8.94-3.61,13.12-3.61,3.21,0,5.84,1.58,5.84,5.14,0,2.31-1.39,5.59-4.02,5.59-1.07,0-1.61-.73-1.61-1.64,0-1.19,1.02-2.26,1.02-3.61,0-1.92-1.45-2.94-2.95-2.94-1.66,0-3.48,1.3-3.43,4.01,0,3.11,3.16,5.37,6.26,5.37,2.94,0,5.84-2.15,5.84-7.68s-2.89-11.01-8.78-11.01c-4.6,0-10.39,4.35-13.22,4.35-1.55,0-2.2-.79-2.2-1.75,0-3.39,6.21-4.4,9.1-4.46h.8c6.21,0,9.89-2.95,11.04-6.45-1.2-.82-2.3-1.56-4.46-1.49-.81,0-1.46.11-2.02.28Z"/>
  <path d="M90.8,7.34c2.09,0,3.48-1.47,3.48-3.67s-1.39-3.67-3.48-3.67-3.48,1.47-3.48,3.67,1.39,3.67,3.48,3.67Z"/>
  <path d="M87.53,25.07v7.73h-3.64v1.13h13.71v-1.13h-3.64v-10.34c-.27.17-.53.35-.79.54-1.33.94-2.83,1.99-5.63,2.07Z"/>
  <path d="M93.95,20.3v-12.04h-.53c-3,.96-7.71.96-9.53.96v1.13h3.64v12.88c2.06-.07,3.08-.78,4.25-1.6.64-.45,1.33-.93,2.18-1.32Z"/>
  <path d="M107.96,23c.08,0,.15,0,.23-.01v-8.12c1.29-1.13,4.28-4.07,6.37-4.07,3.21.06,1.87,5.2,5.62,5.2,4.5,0,4.66-7.4-2.36-7.4-3.85,0-7.12,2.54-8.94,4.18l-.7.62v-5.14h-.53c-3,.96-7.71.96-9.53.96v1.13h3.64v10.09c.64.33,1.18.7,1.7,1.05,1.22.82,2.28,1.56,4.49,1.51Z"/>
  <path d="M107.85,24.84c-2.85,0-4.37-1.03-5.72-1.95-.12-.08-.24-.16-.36-.24v10.14h-3.64v1.13h13.71v-1.13h-3.64v-7.96c-.07,0-.14.01-.21.01-.05,0-.09,0-.14,0Z"/>
  <path d="M121.36,28.43c0,4.29,3,7.28,7.07,7.28,4.66,0,7.5-4.35,10.07-6.27.11,4.52,1.02,5.82,4.87,5.82,1.18,0,3.85-.06,5.03-.17v-1.13h-1.07c-2.41,0-2.41-1.92-2.41-4.35v-2.6c0-1.13-.8-1.47-1.71-1.47-3.64,0-4.77,4.91-11.14,4.97-2.78,0-4.34-1.86-4.34-4.63,0-.05,0-.09,0-.14-2.26-.15-3.63-1.03-4.81-1.84-.97,1.04-1.56,2.47-1.56,4.52Z"/>
  <path d="M143.95,20.44c.72-.98,1.15-2.31,1.13-4.17-.05-5.42-3.75-7.62-8.62-7.62s-11.94,3.61-11.94,8.08c0,2.15,1.61,3.22,3.16,3.22s2.89-.96,2.89-3.05c0-1.3-.86-2.26-.86-3.39,0-2.31,2.14-3.16,4.02-3.16,2.19,0,4.77,1.69,4.77,6.04,0,1.09-.2,1.98-.55,2.73.32-.03.65-.05,1-.06,2.32-.03,3.8.64,5,1.39Z"/>
  <path d="M139.33,22.51c-5.62.31-5.86.56-6.16,6.49-.3-5.93-.54-6.18-6.16-6.49,5.62-.31,5.86-.56,6.16-6.49.3,5.93.54,6.18,6.16,6.49Z"/>
</svg>