<?xml version="1.0" encoding="UTF-8"?>
<svg id="Layer_1" data-name="Layer 1" xmlns="http://www.w3.org/2000/svg" viewBox="0 0 673.65 475.74">
  <defs>
    <style>
      .cls-1 {
        fill: #71c0bb;
      }

      .cls-2 {
        fill: #4e6688;
      }

      .cls-3 {
        fill: #e3eeb2;
      }
    </style>
  </defs>
  <path class="cls-1" d="M17.21,194.05C6.43,170.28-3.81,131.78,1.4,109.61c.1-.42.22-.83.39-1.22,6.05-14.48,25.96-6.07,36.98-1.41,13.77,6.23,27.86,11.58,42.57,15.27,37.37,9.44,76.25,18.39,106.29-6.92,15.12-12.67,20.9-31.63,28.53-49.23,11.4-25.82,27.78-52.26,54.97-61.92,4.19-1.43,11.93-4.03,18.03-4.18,4.94-.13,8.83,4.22,8.16,9.11,0,.03,0,.06-.01.09-.49,3.44-1.43,7.15-.74,10.62.08.41.2.81.36,1.2,3,7.34,12.04,8.02,20.97,8.59.17.01.34.02.51.02,11.31-.01,32.18.54,37.5-10.26,4.59-11.04.43-22.75,18.43-17.8,18.6,5.79,30.13,18.05,42.72,33.45,10.78,12.81,23.38,28.37,30.89,36.85,2.65,2.94,5.3,5.97,8.4,8.23.22.16.44.31.67.45,8.01,4.91,15.34,6.99,25.51,10.7,42.57,14.39,116.88,30.43,159.98-2.26.14-.11.29-.21.44-.31,4.12-2.65,8.27-5.31,12.12-7.2,8.06-4.13,15.06-4.77,17.36,3.44.08.29.14.59.19.89,4.53,27.45-6.56,76.7-19.95,105.65-20.01,40.94-71.05,95.29-122.81,127.17-25.49,15.16-56,24.12-84.54,30.7-5.96,1.35-11.51,2.49-16.65,3.5-5.91,1.22-12.14,2.46-17,6.26-7.45,5.5-8.01,15.83-4.53,23.99,36.76,79.36,113.53,100.28,196.59,38.12,4.44-3.2,12.7-10.71,15.78-12.65.19-.11.34-.19.47-.23.31-.11.44-.01.34.33-.27.89-2.11,3.47-4.64,6.64-48.89,60.32-162.58,83.07-229.87,32.96-20.66-15.09-34.54-35.82-47.79-56.65-5.6-8.43-10.71-17.97-18.8-24.26-7.96-6.32-18.35-7.87-28.21-9.35-28.52-4.28-53.73-7.67-79.96-12.9-61.71-11.32-155.52-68.91-193.72-150.84l-.09-.19Z"/>
  <path class="cls-2" d="M266.63,80.21c-5.05,1.87-10.11,2.36-14.39,1.67-3.54-.58-6.74,2.46-6.07,5.98.09.5.23.99.41,1.47,2.68,7.25,13.88,9.79,25.02,5.68,11.14-4.12,17.99-13.33,15.31-20.59-.02-.07-.05-.13-.08-.2-1.43-3.61-6.18-4.27-8.81-1.41-2.78,3.02-6.71,5.67-11.4,7.4Z"/>
  <ellipse class="cls-3" cx="383.1" cy="177.53" rx="115.5" ry="139" transform="translate(-16.16 40.14) rotate(-5.87)"/>
</svg>