<?xml version="1.0" encoding="UTF-8"?>
<svg id="Layer_3" data-name="Layer 3" xmlns="http://www.w3.org/2000/svg" viewBox="0 0 191 191">
  <path d="M168.3,125.65c-2.66,5.59-6.84,13.49-10.26,17.54-4.18,5.01-8.55,6.74-24.52,6.74-9.69,0-13.49-.19-17.29-.96-5.7-.96-7.22-4.62-7.22-13.68v-34.3h19.39c13.68,0,15.01,1.73,17.67,15.61h5.7v-39.5h-5.7c-2.47,13.1-3.42,15.8-17.67,15.8h-19.39v-46.63c0-5.59.38-6.17,6.27-6.17h17.87c11.59,0,15.96,1.35,19,7.51,2.09,4.24,3.99,8.29,5.7,14.84l5.7-.96c-.76-10.21-1.52-24.66-1.71-29.48-2.09.19-9.31.39-27.18.39H61.11v5.2l8.93,1.16c9.5,1.16,11.21,3.28,7.03,11.37-1.14,1.93-43.52,80.16-45.04,83.05-8.55,15.61-11.97,17.54-24.33,19.08v5.4h45.99v-5.4c-16.91-1.73-18.62-4.82-12.92-15.8.38-.96,17.49-33.72,18.44-35.46h33.64v32.18c0,16.19-1.71,17.54-19,18.88v5.59h92.18c1.71-5.59,6.84-23.89,7.98-30.64l-5.7-1.35ZM90.57,39.9h2.28v52.99h-29.65l27.37-52.99ZM100.63,129.31c-1.24-30.51-2.25-31.53-32.34-32.79,30.09-1.26,31.1-2.28,32.34-32.79,1.24,30.51,2.25,31.53,32.34,32.79-30.09,1.26-31.1,2.28-32.34,32.79Z"/>
</svg>